PathFileType	4	(X/Y/Z)	C:\Users\°ÂÌØÂü\Desktop\20210112\bx_y_5_501-Unnamed.trc
DataRate	CameraRate	NumFrames	NumMarkers	Units	OrigDataRate	OrigDataStartFrame	OrigNumFrames
50.00	50.00	       7	0	mm	50.00	390	       519
Frame#	Time	
		

390	7.780	-787.37860	276.03879	745.20752	-510.13263	289.82956	1460.03076	-746.52466	278.83209	876.29822	-685.06952	215.54956	822.91351	-723.83026	71.99687	220.12007	-681.83197	-7.69176	806.99127	-800.73322	250.03000	632.82819				-884.42029	89.44348	1065.21155	-794.65704	246.16608	571.56952	-825.72137	256.34354	494.73923	-734.32074	206.71617	536.47229	-477.88678	-55.97816	1463.35596	-716.65973	156.91949	220.26303	-775.87360	226.11972	201.90105	-882.66022	296.17236	144.49460	-676.80444	176.40016	160.72285	-597.05334	226.29002	173.79907	-667.45819	301.44720	157.67268	-629.52124	308.69547	160.62914	-562.69281	261.93314	164.79156	-528.19092	303.89691	146.13193	-410.27563	121.75595	1744.44727	-725.20093	11.58168	525.03131	-624.47150	-80.39532	158.16756	-562.89917	-40.37278	162.49947	-517.80090	-73.13921	142.75363	-604.35120	17.30595	168.48885	-677.08130	52.08374	162.61458	-798.21344	174.51775	182.18814	-755.68744	74.23940	571.53094	-796.85297	52.44962	173.59039	-686.89075	213.89285	1052.08789	-816.11914	-41.15762	480.83182	-773.80933	-9.54514	203.32280	-875.64880	-79.04969	141.18465	-666.52081	-70.23837	159.41824	-781.40112	-30.84804	565.36597	-754.76599	144.89404	571.38177	-683.07935	-7.27200	1043.54272										-773.95233	-32.64572	612.52325	
391	7.800	-784.60358	275.94363	745.65131	-517.64050	289.89722	1466.83154	-743.02820	279.99374	876.87128	-682.05353	215.88646	823.12488	-723.72162	72.04281	219.99188	-678.73932	-7.25927	807.03741	-798.73041	250.14134	632.93433	-510.61676	107.94445	1333.12463	-882.53918	90.28151	1064.44312	-793.00537	246.86923	572.11658	-824.54529	256.15036	494.80420	-732.84784	207.06119	536.57336	-485.76910	-55.88656	1470.74060	-716.32819	156.89401	220.04071	-775.85791	226.09851	201.92386	-882.69684	296.25226	144.67354	-676.98248	176.35547	160.82443	-597.02814	226.38951	173.90727	-667.57837	301.63217	157.07326	-629.54498	308.90314	160.56229	-562.72424	261.87714	164.78831	-528.14893	303.78488	146.16669	-422.29611	120.97042	1753.52039	-723.00415	11.72806	525.39337	-624.29303	-80.30779	158.29642	-562.96234	-40.62626	162.57945	-517.83636	-73.08951	142.59885	-604.39063	17.39136	168.60225	-676.73999	51.99181	162.64381	-798.31775	174.48514	182.12634	-753.67609	74.53183	571.80768	-796.76300	52.55732	173.57526	-683.74463	213.87924	1053.16833	-814.63477	-40.72014	481.41833	-773.67059	-9.39254	203.36009	-875.98260	-78.63828	140.87094	-666.45325	-70.30330	159.50043	-779.23853	-30.30614	565.63080	-752.63507	144.94263	571.46149	-679.63177	-7.10930	1044.84875	-764.71582	-56.92928	705.95856							-771.71716	-32.36052	613.00690	
392	7.820	-782.08472	276.30759	746.36060	-524.82471	290.15997	1473.11096	-740.53906	280.60675	877.30542	-679.43445	216.45418	823.61646	-723.44684	72.17224	220.02528	-676.29260	-7.51885	807.33826	-796.91931	249.86557	632.82465	-514.62305	109.26518	1339.29944	-880.25342	91.00599	1063.81860	-791.25226	246.68121	572.16058	-823.17822	256.45877	494.96475	-731.18225	207.17502	536.66211	-493.13428	-56.44876	1478.34814	-716.14996	156.75261	220.07298	-775.81287	226.15134	201.95439	-882.68323	296.19928	144.69960	-676.80444	176.40016	160.72285	-597.01367	226.47733	173.80054	-667.45612	301.83481	157.24442	-629.71161	308.85971	160.58316	-562.75647	261.78308	164.75714	-527.98761	303.84781	146.24532	-433.91986	120.36175	1762.03845	-721.58069	12.34210	525.26727	-624.32776	-80.28462	158.27094	-562.94745	-40.69440	162.37215	-517.84613	-72.87447	142.55020	-604.20532	17.19320	168.71819	-676.43439	51.88353	162.48557	-798.36548	174.51643	182.14281	-751.90735	74.75451	572.21454	-796.45386	52.77152	173.51311				-813.13037	-39.66589	481.69611	-773.73718	-9.27187	203.42433	-875.97748	-78.88188	141.21204	-666.38470	-70.30682	159.56656	-777.43121	-29.89909	566.00378	-750.89557	145.19493	572.43146													-769.55432	-32.47416	613.50739	
393	7.840	-778.91760	275.49817	745.96680	-532.20978	290.76617	1479.61182	-737.64825	280.41919	877.21118	-676.31293	216.85361	823.65112	-723.03607	72.70053	219.97716	-673.06641	-7.10556	807.28723	-794.88867	250.45204	633.50531	-517.52094	110.13702	1345.69714	-878.04480	91.21572	1063.22827	-789.78864	247.24294	572.34833	-821.92889	256.54080	495.61063	-729.93927	207.37265	536.40680	-500.69122	-55.71827	1485.15405	-715.90741	156.71712	219.93810	-775.81287	226.15134	201.95439	-882.42719	296.06332	144.32628	-676.74799	176.38341	160.92285	-596.97845	226.30687	173.90672	-668.00024	301.78006	157.49934	-629.76733	308.92084	160.61964	-563.00562	261.64319	164.85965	-528.02991	304.02341	146.31354	-445.68231	119.38581	1769.82764	-720.03534	12.60619	525.17700	-624.50549	-80.37667	158.26344	-562.98798	-40.75841	162.42130	-517.84424	-73.14918	142.67856	-604.21112	17.11890	168.53404	-676.32318	52.02658	162.06148	-798.30194	174.39429	182.06314	-750.03400	75.26798	571.96442	-796.33722	53.08492	173.39742	-759.83197	-54.82758	705.92053	-811.62360	-38.81474	482.33521	-773.49982	-9.05630	203.50967	-875.64880	-79.04969	141.18465	-666.50952	-70.22546	159.62024	-775.69861	-29.35957	566.10236	-749.05042	145.40274	572.35840													-767.31055	-31.63440	614.01990	
394	7.860	-776.61060	275.81924	746.54498	-539.22583	291.28555	1485.28357	-734.70612	280.59457	877.39197				-722.92120	72.72623	220.11563	-670.62421	-6.82078	807.34882	-792.87042	250.66647	634.14850	-522.40613	109.64704	1350.74902	-875.59735	92.27383	1062.68701	-788.11499	247.10185	572.64551	-820.98236	256.38260	496.03009	-728.05566	207.68782	536.57825	-508.13101	-55.94462	1491.94751	-715.87067	156.52441	219.78099	-775.76996	226.17598	202.01157	-882.38300	296.26059	144.47685	-676.88727	176.47333	160.78293	-597.24829	226.62447	173.90262	-667.88586	301.86200	157.70468	-629.90570	308.87915	160.47537	-562.71924	262.03375	164.96254	-528.08472	303.86240	146.37585	-456.60223	119.08807	1777.50110	-718.24414	12.70982	525.53381	-624.60510	-80.06335	158.15678	-562.92780	-40.94415	162.42294	-517.76208	-73.06253	142.54491	-604.25061	17.20430	168.64745	-676.29285	52.33246	161.92139	-798.23816	174.38411	182.10916	-747.83728	75.49702	572.21906	-796.34174	53.16337	173.45789	-758.40295	-55.04979	706.00903	-811.49078	-39.99907	482.41428	-773.44971	-8.73076	203.54784	-875.65533	-78.94249	141.29453	-666.60028	-70.12496	159.67384	-773.86499	-29.12978	566.31500	-747.65869	145.48648	572.80969	-673.07886	217.76341	824.15656										-765.31165	-30.95833	613.69550	
395	7.880	-773.62476	276.30750	746.52130	-545.95258	291.35901	1491.29712	-730.98297	281.06870	877.81189				-722.92120	72.72623	220.11563	-667.61395	-6.49253	807.23096	-790.49579	250.64499	633.98169	-525.40204	110.56207	1356.54846	-872.75031	93.22372	1061.39868	-786.05756	247.68449	573.03497	-818.92542	256.24539	496.31131	-726.30872	207.77795	536.75720	-515.83453	-55.76341	1498.30237	-715.61060	156.33107	220.02905	-775.61780	226.07982	201.86879	-882.46075	296.39633	144.83417	-676.88727	176.47333	160.78293	-597.24829	226.62447	173.90262	-667.92047	301.75262	157.57542	-629.81641	308.90567	160.54202	-562.76123	261.72733	165.09038	-528.01721	303.92078	146.36935	-467.90060	118.17796	1784.48645	-716.51770	13.36630	525.45367	-624.63580	-80.24126	158.48738	-563.14185	-40.88086	162.54016	-517.99707	-72.95355	142.58525	-604.30817	17.30067	168.65523	-675.91534	52.38073	161.90260	-798.20374	174.19543	182.27953	-746.32397	76.14503	572.76147	-796.26202	53.46133	173.55928	-755.48981	-54.29649	705.92517	-809.84827	-39.37599	482.82639	-773.37665	-8.43382	203.64343	-875.83337	-78.66731	141.02795	-666.55457	-70.28121	159.70921	-771.82770	-28.19605	566.37000	-745.26813	145.88142	572.51276	-670.35101	217.56096	824.28235										-763.08551	-30.55152	614.14923	
396	7.900	-770.76697	276.15674	746.85992	-553.16913	291.50687	1496.49902	-727.40576	281.27975	877.76147				-722.79095	72.75140	220.03159	-664.63025	-6.03043	807.94763	-788.25775	251.06210	634.57080	-528.84619	110.71136	1361.98376	-870.18140	93.66856	1060.52197	-784.07269	247.74254	573.39447	-817.98975	256.46451	496.80972	-724.95538	207.97060	536.82288	-523.08551	-55.93350	1504.25928	-715.69519	156.33083	219.92804	-775.32996	226.09546	202.13943	-882.06677	296.37601	144.56435	-676.74799	176.38341	160.92285	-597.02814	226.38951	173.90727	-667.92047	301.75262	157.57542	-629.87561	308.76239	160.58096	-562.71661	261.87643	165.04648	-528.06146	303.88495	146.21423	-479.05054	117.41286	1791.02930	-714.60724	13.73743	524.94702	-624.57928	-80.19135	158.53535	-563.01343	-41.06207	162.59596	-517.83563	-72.93145	142.83839	-604.26752	17.21681	168.76649	-676.17706	52.40755	161.75981	-798.07452	174.13721	182.32314	-743.95032	76.50919	573.07166	-796.14117	53.74480	173.52788	-753.04236	-53.44252	706.65814	-808.64130	-38.80636	483.20193	-773.35913	-8.12280	204.00691	-875.99298	-78.87768	141.19183	-666.60944	-70.14396	159.82448	-769.79614	-28.27181	566.86725	-743.97723	145.83734	572.47363	-667.19568	217.89598	824.30048										-760.77582	-30.17929	614.27661	
